<svg width="120" height="120" viewBox="0 0 120 120" fill="none" xmlns="http://www.w3.org/2000/svg">
<path d="M120 60C120 26.8538 93.1237 0 60 0C26.8538 0 0 26.8538 0 60C0 89.94 21.9338 114.765 50.625 119.261V77.3475H35.3888V60.0038H50.625V46.7775C50.625 31.7438 59.5688 23.4413 73.2787 23.4413C79.845 23.4413 86.7188 24.6113 86.7188 24.6113V39.375H79.14C71.7 39.375 69.375 44.0063 69.375 48.75V60H86.0137L83.34 77.3438H69.375V119.258C98.0437 114.761 120 89.9363 120 59.9963V60Z" fill="black"/>
</svg>
