<svg width="120" height="80" viewBox="0 0 120 80" fill="none" xmlns="http://www.w3.org/2000/svg">
<path d="M117.495 12.3127C116.069 7.4955 112.123 3.71746 107.04 2.38193C97.6813 0.000113872 60.0573 0.000114447 60.0573 0.000114447C60.0573 0.000114447 22.5045 -0.0570212 13.0479 2.38193C7.99133 3.72103 4.02637 7.4955 2.61594 12.3127C0.841642 21.4436 -0.0398785 30.6851 0.00138414 39.9696C-0.0173716 49.1933 0.860398 58.4206 2.61594 67.4943C4.02637 72.3115 7.99133 76.0896 13.0479 77.4465C22.407 79.8283 60.0573 79.8283 60.0573 79.8283C60.0573 79.8283 97.5876 79.8283 107.04 77.4465C112.123 76.0896 116.069 72.3151 117.495 67.4943C119.217 58.4206 120.057 49.1933 119.997 39.9696C120.057 30.6851 119.235 21.4436 117.495 12.3127ZM48.0386 57.0636V22.8005L79.357 39.9696L48.0386 57.0636Z" fill="black"/>
</svg>
