<svg width="120" height="104" viewBox="0 0 120 104" fill="none" xmlns="http://www.w3.org/2000/svg">
<path d="M60 0C43.7 0 41.665 0.0645454 35.265 0.309818C28.875 0.568 24.525 1.43291 20.7 2.71091C16.755 4.02764 13.405 5.79618 10.07 8.6663C6.735 11.5364 4.675 14.4152 3.15 17.8145C1.665 21.1064 0.655 24.85 0.36 30.3493C0.06 35.8572 0 37.6085 0 51.6364C0 65.6642 0.075 67.4156 0.36 72.9235C0.66 78.4184 1.665 82.1664 3.15 85.4582C4.65646 88.9043 7.01798 92.0262 10.07 94.6064C13.0664 97.2348 16.6945 99.2675 20.7 100.562C24.53 101.836 28.88 102.709 35.265 102.963C41.665 103.221 43.7 103.273 60 103.273C76.3 103.273 78.335 103.208 84.735 102.963C91.12 102.705 95.475 101.836 99.3 100.562C103.303 99.2637 106.931 97.2316 109.93 94.6064C112.985 92.0284 115.347 88.9059 116.85 85.4582C118.33 82.1664 119.345 78.4184 119.64 72.9235C119.94 67.4156 120 65.6642 120 51.6364C120 37.6085 119.925 35.8572 119.64 30.3493C119.34 24.8543 118.33 21.1021 116.85 17.8145C115.343 14.3688 112.981 11.247 109.93 8.6663C106.936 6.03561 103.307 4.00264 99.3 2.71091C95.475 1.43291 91.12 0.563697 84.735 0.309818C78.335 0.0516364 76.3 0 60 0ZM60 9.29455C76.015 9.29455 77.925 9.36339 84.25 9.60006C90.1 9.83673 93.275 10.6715 95.385 11.3858C98.195 12.3196 100.185 13.4384 102.295 15.2413C104.39 17.0486 105.69 18.7655 106.775 21.1838C107.595 22.9997 108.575 25.7321 108.84 30.7667C109.125 36.2143 109.19 37.8495 109.19 51.6364C109.19 65.4233 109.115 67.0627 108.82 72.5061C108.515 77.5406 107.54 80.273 106.715 82.0889C105.739 84.3298 104.205 86.3595 102.22 88.0357C100.281 89.7453 97.9237 91.0623 95.32 91.8912C93.22 92.5969 89.995 93.4403 84.145 93.6684C77.775 93.9136 75.9 93.9696 59.85 93.9696C43.795 93.9696 41.92 93.905 35.555 93.6512C29.7 93.3887 26.475 92.5496 24.375 91.8396C21.7695 91.0099 19.4134 89.688 17.48 87.9712C15.4729 86.3134 13.9336 84.2821 12.98 82.033C12.155 80.2257 11.185 77.4502 10.88 72.4157C10.655 66.9939 10.575 65.32 10.575 51.5718C10.575 37.8193 10.655 36.1412 10.88 30.6548C11.185 25.6202 12.155 22.8491 12.98 21.0418C14.03 18.5891 15.375 16.9109 17.48 15.0993C19.575 13.2964 21.53 12.1345 24.375 11.2352C26.475 10.5209 29.63 9.68182 35.48 9.42364C41.855 9.23 43.73 9.16546 59.775 9.16546L60 9.29455ZM60 25.1211C55.954 25.1211 51.9476 25.8069 48.2095 27.1394C44.4715 28.472 41.075 30.4251 38.214 32.8872C35.3531 35.3494 33.0836 38.2724 31.5353 41.4894C29.9869 44.7064 29.19 48.1543 29.19 51.6364C29.19 55.1184 29.9869 58.5663 31.5353 61.7833C33.0836 65.0003 35.3531 67.9233 38.214 70.3855C41.075 72.8477 44.4715 74.8008 48.2095 76.1333C51.9476 77.4658 55.954 78.1516 60 78.1516C68.1713 78.1516 76.008 75.3581 81.786 70.3855C87.5639 65.4129 90.81 58.6687 90.81 51.6364C90.81 44.6041 87.5639 37.8598 81.786 32.8872C76.008 27.9147 68.1713 25.1211 60 25.1211ZM60 68.8485C48.95 68.8485 40 61.1461 40 51.6364C40 42.1267 48.95 34.4242 60 34.4242C71.05 34.4242 80 42.1267 80 51.6364C80 61.1461 71.05 68.8485 60 68.8485ZM99.23 24.0755C99.1606 25.6789 98.3716 27.1967 97.0289 28.3099C95.6862 29.4232 93.8944 30.0452 92.03 30.0452C90.1656 30.0452 88.3737 29.4232 87.0311 28.3099C85.6884 27.1967 84.8994 25.6789 84.83 24.0755C84.83 22.4321 85.5886 20.856 86.9388 19.694C88.2891 18.5319 90.1204 17.8791 92.03 17.8791C93.9396 17.8791 95.7709 18.5319 97.1212 19.694C98.4714 20.856 99.23 22.4321 99.23 24.0755Z" fill="black"/>
</svg>
